<svg width="22" height="32" viewBox="0 0 22 32" fill="none" xmlns="http://www.w3.org/2000/svg">
<path d="M20.241 17.6782C19.9503 17.2104 19.6381 16.8145 19.3049 16.4911C18.9718 16.1673 18.5347 15.8726 17.9926 15.606C17.4512 15.3395 16.972 15.133 16.5555 14.9858C16.1393 14.8384 15.5806 14.6913 14.8796 14.544C14.1792 14.3967 13.6273 14.2929 13.2247 14.232C12.8217 14.1715 12.2411 14.0938 11.4832 13.9991C10.8106 13.9122 10.3088 13.8433 9.97747 13.793C9.64645 13.7425 9.20847 13.6647 8.66322 13.5595C8.11826 13.4544 7.70457 13.3481 7.42248 13.241C7.14046 13.1338 6.83381 12.9955 6.50234 12.8263C6.17087 12.657 5.91913 12.4578 5.74694 12.2288C5.57501 11.9996 5.45387 11.7371 5.38389 11.4411C5.20089 10.6674 5.44977 9.96033 6.13098 9.32065C6.81225 8.68096 7.78387 8.24189 9.04575 8.0037C9.60332 7.89845 10.1872 7.85651 10.7956 7.87854C11.404 7.90057 11.9337 7.95474 12.3845 8.04217C12.8357 8.12954 13.2671 8.23837 13.6796 8.36847C14.092 8.49875 14.3866 8.60057 14.5637 8.67414C14.7407 8.7478 14.8536 8.79776 14.9011 8.82452C15.101 8.90567 15.2892 8.91168 15.4671 8.84255C15.6636 8.7936 15.7949 8.67355 15.8611 8.48291L16.8857 5.68569C16.9912 5.42809 16.9071 5.21802 16.6326 5.05569C16.5367 5.00247 16.4186 4.94162 16.2767 4.87321C16.1359 4.80458 15.8378 4.68851 15.3825 4.52466C14.9276 4.36091 14.4554 4.2271 13.9663 4.12321C13.4768 4.01959 12.8537 3.93793 12.0973 3.87869C11.3413 3.81908 10.5763 3.82686 9.80291 3.90157L9.09226 0.896746C9.0546 0.737509 8.96396 0.617817 8.82054 0.537824C8.67688 0.458122 8.51191 0.435604 8.32566 0.47076L5.63582 0.978488C5.46318 1.01108 5.32655 1.09327 5.22596 1.22526C5.12538 1.35725 5.09256 1.49712 5.12756 1.64511L5.85433 4.71811C3.84967 5.45306 2.33654 6.5353 1.31482 7.96467C0.293264 9.39407 -0.0320908 10.8939 0.339404 12.4647C0.449754 12.9313 0.611393 13.3644 0.823847 13.764C1.03625 14.164 1.26531 14.5161 1.51079 14.8205C1.75618 15.1251 2.07008 15.4105 2.45225 15.6773C2.8344 15.944 3.18933 16.1683 3.5167 16.3502C3.8442 16.5319 4.25675 16.7068 4.75412 16.8744C5.25182 17.0421 5.67485 17.1735 6.02337 17.2681C6.37185 17.3623 6.82871 17.4609 7.39356 17.5619C7.95869 17.6634 8.40289 17.7369 8.72605 17.7832C9.04913 17.8291 9.49118 17.8944 10.0524 17.9783C10.826 18.0819 11.4012 18.1667 11.7775 18.2324C12.154 18.2982 12.6352 18.3975 13.222 18.5305C13.8082 18.6633 14.2471 18.8035 14.5388 18.9507C14.8302 19.0978 15.1092 19.2949 15.3758 19.5417C15.6424 19.7885 15.8136 20.0713 15.889 20.3901C16.1017 21.2893 15.8574 22.0605 15.156 22.7037C14.455 23.3474 13.5662 23.7708 12.4905 23.9739C11.9995 24.0665 11.497 24.1141 10.9842 24.1158C9.18744 24.1455 7.40548 23.7387 5.63814 22.8954L5.59022 22.8687C5.44108 22.7665 5.26949 22.7452 5.07589 22.8057C4.86871 22.8686 4.73205 22.9658 4.66614 23.0973L3.159 25.7892C3.01353 26.0544 3.08216 26.2852 3.36443 26.4816C3.4471 26.5373 3.58757 26.6181 3.78576 26.7231C3.98449 26.8286 4.34374 26.9833 4.86386 27.1889C5.38403 27.3941 5.94002 27.5741 6.53206 27.7302C7.12392 27.8859 7.85775 28.0118 8.734 28.1081C9.61016 28.2039 10.4984 28.2205 11.3993 28.1574L12.1059 31.145C12.1409 31.2931 12.2343 31.4091 12.386 31.4935C12.5378 31.578 12.6999 31.6036 12.8725 31.5711L15.5624 31.0633C15.7486 31.0282 15.8894 30.9482 15.9846 30.8233C16.0798 30.6985 16.1083 30.5563 16.0705 30.3967L15.3639 27.4091C17.4062 26.7145 18.9392 25.6136 19.9632 24.1065C20.9873 22.5994 21.2936 20.9751 20.8818 19.2339C20.7465 18.665 20.5338 18.1464 20.241 17.6782Z" fill="#79A164" fill-opacity="0.65"/>
</svg>
