<svg width="15" height="23" viewBox="0 0 15 23" fill="none" xmlns="http://www.w3.org/2000/svg">
<path d="M14.0617 13.0988C13.8592 12.7637 13.6425 12.4797 13.4119 12.2473C13.1814 12.0146 12.8797 11.8021 12.5063 11.6091C12.1334 11.4161 11.8034 11.2663 11.517 11.1591C11.2306 11.0518 10.8466 10.9438 10.3651 10.835C9.884 10.7261 9.50496 10.6491 9.22859 10.6035C8.95192 10.5582 8.55337 10.4997 8.03321 10.428C7.57153 10.3624 7.2271 10.3106 6.99962 10.2729C6.77237 10.235 6.4716 10.1772 6.09712 10.0992C5.72284 10.0214 5.43853 9.94332 5.24443 9.86538C5.05038 9.78743 4.83923 9.68718 4.61085 9.56471C4.38248 9.44224 4.20856 9.29883 4.08896 9.13458C3.96955 8.97026 3.88472 8.78241 3.83473 8.57103C3.70402 8.01834 3.86981 7.51557 4.33242 7.06318C4.79507 6.61078 5.45813 6.303 6.32152 6.14003C6.70301 6.06802 7.10299 6.04129 7.52017 6.0603C7.93735 6.07931 8.30085 6.12082 8.6105 6.18561C8.92038 6.25035 9.21686 6.33029 9.50048 6.42529C9.78409 6.52043 9.98669 6.59462 10.1086 6.64804C10.2304 6.70152 10.3082 6.73776 10.3409 6.7571C10.4785 6.81604 10.6076 6.82135 10.7291 6.77303C10.8634 6.73919 10.9526 6.65431 10.9967 6.51874L11.68 4.52989C11.7505 4.3468 11.6915 4.19656 11.5022 4.07933C11.4361 4.04086 11.3547 3.99683 11.257 3.94728C11.16 3.89758 10.9549 3.81321 10.6416 3.69391C10.3287 3.57468 10.0041 3.47671 9.66812 3.39998C9.33185 3.32344 8.9042 3.26183 8.38528 3.21548C7.86661 3.16887 7.34228 3.17026 6.81261 3.21933L6.30501 1.07302C6.27811 0.959281 6.21516 0.873448 6.1163 0.815633C6.01728 0.758025 5.90404 0.741073 5.77661 0.765127L3.93619 1.11252C3.81807 1.13482 3.72497 1.19268 3.65691 1.28624C3.58886 1.3798 3.56732 1.47935 3.59232 1.58506L4.11144 3.78006C2.74226 4.29319 1.71238 5.0566 1.02173 6.07019C0.331189 7.0838 0.118372 8.1514 0.383725 9.27339C0.462546 9.60667 0.576299 9.9164 0.724656 10.2025C0.872977 10.4888 1.0324 10.7411 1.20275 10.9594C1.37303 11.178 1.59016 11.3832 1.85395 11.5755C2.11772 11.7677 2.36255 11.9296 2.58821 12.061C2.81394 12.1924 3.09794 12.3193 3.44002 12.4415C3.78233 12.5638 4.07321 12.6598 4.31277 12.7291C4.55229 12.7982 4.86614 12.871 5.25403 12.946C5.64211 13.0215 5.94711 13.0763 6.16895 13.111C6.39073 13.1455 6.6942 13.1945 7.07946 13.2574C7.61052 13.3355 8.00536 13.399 8.26373 13.448C8.52229 13.4969 8.85284 13.5703 9.25599 13.6683C9.65876 13.7662 9.96053 13.8686 10.1615 13.9751C10.3623 14.0816 10.5548 14.2236 10.7393 14.401C10.9238 14.5784 11.043 14.781 11.0969 15.0087C11.2488 15.651 11.0866 16.1995 10.6101 16.6544C10.134 17.1095 9.52764 17.4066 8.79163 17.5455C8.45569 17.6089 8.11153 17.6401 7.76003 17.6385C6.52855 17.6499 5.30426 17.3502 4.08701 16.7393L4.05398 16.72C3.95105 16.6463 3.83328 16.6302 3.70098 16.6723C3.55938 16.716 3.46636 16.7845 3.42208 16.878L2.40727 18.7891C2.30936 18.9774 2.35798 19.1423 2.55281 19.2839C2.60986 19.3241 2.7067 19.3824 2.84327 19.4584C2.98022 19.5347 3.22753 19.647 3.58548 19.7964C3.94345 19.9455 4.3258 20.0768 4.7327 20.1914C5.13948 20.3056 5.64338 20.3994 6.2447 20.4728C6.84595 20.5459 7.45495 20.5625 8.07207 20.5224L8.57677 22.6564C8.6018 22.7622 8.66662 22.8454 8.77118 22.9065C8.87585 22.9675 8.98711 22.9867 9.10524 22.9644L10.9457 22.617C11.0731 22.5929 11.169 22.5367 11.2334 22.4482C11.2978 22.3597 11.3164 22.2584 11.2894 22.1444L10.7847 20.0104C12.18 19.5263 13.2233 18.7497 13.915 17.6807C14.6067 16.6116 14.8057 15.4552 14.5115 14.2115C14.4149 13.8052 14.2656 13.4342 14.0617 13.0988Z" fill="#79A164" fill-opacity="0.5"/>
</svg>
