<svg width="26" height="40" viewBox="0 0 26 40" fill="none" xmlns="http://www.w3.org/2000/svg">
<path opacity="0.8" d="M24.9732 22.2711C24.6157 21.6815 24.233 21.1819 23.8256 20.7732C23.4183 20.364 22.8852 19.9905 22.2252 19.6513C21.5658 19.3122 20.9826 19.0489 20.4761 18.8607C19.9698 18.6723 19.2908 18.4829 18.4393 18.2921C17.5885 18.1013 16.9182 17.9663 16.4295 17.8866C15.9402 17.8072 15.2353 17.7048 14.3154 17.5795C13.4989 17.4647 12.8898 17.3741 12.4875 17.3082C12.0856 17.242 11.5537 17.1407 10.8915 17.004C10.2296 16.8676 9.72684 16.7306 9.38367 16.5937C9.04059 16.4568 8.66731 16.2807 8.26361 16.0655C7.85991 15.8503 7.55256 15.5981 7.34136 15.3092C7.13048 15.0201 6.98083 14.6896 6.89284 14.3175C6.66279 13.3448 6.9571 12.4594 7.77633 11.6623C8.59564 10.8651 9.76911 10.3222 11.2966 10.0339C11.9716 9.90646 12.6791 9.85874 13.417 9.89151C14.1549 9.92429 14.7978 9.99674 15.3454 10.1103C15.8934 10.2237 16.4176 10.364 16.9191 10.5307C17.4206 10.6977 17.7788 10.828 17.9943 10.9219C18.2097 11.0158 18.3472 11.0795 18.405 11.1134C18.6482 11.217 18.8765 11.2261 19.0915 11.1408C19.3293 11.081 19.4872 10.9315 19.5654 10.6928L20.7782 7.19045C20.9034 6.86801 20.7993 6.60364 20.4648 6.39758C20.3478 6.32997 20.2041 6.25259 20.0312 6.16553C19.8599 6.07821 19.4972 5.93001 18.9433 5.72052C18.39 5.51116 17.8161 5.33922 17.222 5.20471C16.6273 5.07053 15.871 4.96279 14.9532 4.88206C14.0359 4.80087 13.1084 4.80419 12.1714 4.89146L11.278 1.11396C11.2307 0.913774 11.1195 0.76278 10.9448 0.661168C10.7698 0.559921 10.5695 0.530267 10.344 0.572824L7.0879 1.18744C6.87892 1.22689 6.71411 1.32891 6.59354 1.49373C6.47298 1.65854 6.43466 1.83383 6.47866 2.01988L7.39231 5.88307C4.96938 6.78866 3.1461 8.13429 1.92234 9.91975C0.698766 11.7053 0.320097 13.585 0.787118 15.5597C0.925844 16.1463 1.12641 16.6914 1.38823 17.1947C1.64999 17.6985 1.93145 18.1424 2.23231 18.5265C2.53306 18.9109 2.91669 19.2718 3.38289 19.6099C3.84907 19.9478 4.28179 20.2324 4.68066 20.4634C5.07968 20.6942 5.58175 20.9172 6.18658 21.1317C6.79182 21.3465 7.30614 21.5149 7.72973 21.6367C8.15326 21.7577 8.70825 21.8854 9.39421 22.0169C10.0805 22.1491 10.6199 22.2451 11.0122 22.3059C11.4044 22.3662 11.9411 22.4519 12.6225 22.562C13.5616 22.6986 14.2599 22.8097 14.7168 22.8955C15.1741 22.9811 15.7586 23.1099 16.4715 23.2818C17.1837 23.4534 17.7173 23.6331 18.0725 23.8202C18.4275 24.0074 18.7678 24.2571 19.0937 24.5691C19.4196 24.8811 19.6302 25.2375 19.725 25.6383C19.9923 26.7687 19.7043 27.7346 18.8606 28.5361C18.0174 29.3381 16.9442 29.8621 15.642 30.1078C15.0477 30.22 14.4389 30.2755 13.8171 30.2733C11.6388 30.2954 9.47385 29.7699 7.32201 28.6964L7.26363 28.6626C7.08172 28.533 6.87344 28.5049 6.63933 28.5792C6.38878 28.6563 6.22411 28.7772 6.14558 28.9417L4.34655 32.3078C4.17296 32.6394 4.25862 32.9296 4.60295 33.1785C4.70378 33.2492 4.87495 33.3518 5.11637 33.4852C5.35845 33.6193 5.79567 33.8166 6.4285 34.079C7.06138 34.3409 7.73743 34.5715 8.45693 34.7724C9.17622 34.9728 10.0673 35.137 11.1308 35.2652C12.1942 35.3929 13.2714 35.4212 14.363 35.3496L15.2513 39.1054C15.2954 39.2917 15.4098 39.4381 15.5947 39.5453C15.7797 39.6526 15.9764 39.6861 16.1854 39.6467L19.4416 39.0321C19.667 38.9895 19.8368 38.8903 19.9509 38.7344C20.065 38.5785 20.0981 38.4003 20.0506 38.1996L19.1623 34.4437C21.6313 33.5891 23.4785 32.2203 24.7041 30.3373C25.93 28.4542 26.2843 26.4181 25.7666 24.2291C25.5966 23.514 25.3332 22.8612 24.9732 22.2711Z" fill="#79A164"/>
</svg>
