<svg width="64" height="64" viewBox="0 0 64 64" fill="none" xmlns="http://www.w3.org/2000/svg">
<path d="M54.7613 34.165H49.8118C50.3163 35.5463 50.5919 37.0369 50.5919 38.5905V57.2968C50.5919 57.9446 50.4791 58.5663 50.274 59.1446H58.4566C61.5133 59.1446 63.9999 56.6578 63.9999 53.6013V43.4037C64 38.3095 59.8555 34.165 54.7613 34.165Z" fill="#E4A738"/>
<path d="M13.4082 38.5907C13.4082 37.0369 13.6838 35.5464 14.1883 34.1652H9.23877C4.14451 34.1652 0 38.3097 0 43.4039V53.6016C0 56.6581 2.48663 59.1448 5.54326 59.1448H13.726C13.5209 58.5663 13.4082 57.9447 13.4082 57.297V38.5907Z" fill="#E4A738"/>
<path d="M37.6575 29.3519H26.3423C21.248 29.3519 17.1035 33.4964 17.1035 38.5907V57.297C17.1035 58.3174 17.9308 59.1447 18.9513 59.1447H45.0486C46.0691 59.1447 46.8963 58.3175 46.8963 57.297V38.5907C46.8963 33.4964 42.7518 29.3519 37.6575 29.3519Z" fill="#EFBE44"/>
<path d="M32.0003 4.85498C25.8738 4.85498 20.8895 9.83924 20.8895 15.9659C20.8895 20.1215 23.1832 23.7509 26.5704 25.6564C28.177 26.5602 30.0293 27.0767 32.0003 27.0767C33.9713 27.0767 35.8235 26.5602 37.4302 25.6564C40.8176 23.7509 43.1111 20.1214 43.1111 15.9659C43.1111 9.83936 38.1268 4.85498 32.0003 4.85498Z" fill="#EFBE44"/>
<path d="M12.4899 15.2112C7.90805 15.2112 4.18054 18.9387 4.18054 23.5206C4.18054 28.1025 7.90805 31.83 12.4899 31.83C13.6522 31.83 14.7589 31.5892 15.7643 31.1565C17.5026 30.4081 18.9358 29.0833 19.8227 27.424C20.4452 26.2593 20.7993 24.9307 20.7993 23.5206C20.7993 18.9388 17.0718 15.2112 12.4899 15.2112Z" fill="#E4A738"/>
<path d="M51.5104 15.2112C46.9286 15.2112 43.201 18.9387 43.201 23.5206C43.201 24.9308 43.5552 26.2595 44.1777 27.424C45.0646 29.0835 46.4978 30.4082 48.2361 31.1565C49.2414 31.5892 50.3482 31.83 51.5104 31.83C56.0923 31.83 59.8198 28.1025 59.8198 23.5206C59.8198 18.9387 56.0923 15.2112 51.5104 15.2112Z" fill="#E4A738"/>
</svg>
