<svg width="64" height="64" viewBox="0 0 64 64" fill="none" xmlns="http://www.w3.org/2000/svg">
<path d="M62.8327 38.2145C63.7191 38.5032 64.2053 39.4554 63.9166 40.3417C63.6853 41.0559 63.0235 41.5084 62.3111 41.5084C62.1388 41.5084 61.9633 41.4814 61.7895 41.4256L58.8907 40.4836C58.0027 40.1949 57.5181 39.2428 57.8068 38.3564C58.0938 37.47 59.0477 36.9837 59.9341 37.2725L62.8327 38.2145Z" fill="#EFBE44"/>
<path d="M60.0944 20.8879C60.5941 22.4259 60.1855 24.0838 59.0258 25.2149L48.8928 35.0912C48.6935 35.2854 48.604 35.5656 48.6497 35.8391L51.0419 49.7858C51.3154 51.3812 50.6722 52.9632 49.3638 53.9137C48.6243 54.4506 47.7583 54.7241 46.887 54.7241C46.2152 54.7241 45.5415 54.562 44.9185 54.2345L32.3933 47.6502C32.1468 47.5202 31.8531 47.5202 31.6083 47.6502L19.0831 54.2345C17.6497 54.9875 15.9464 54.8658 14.6379 53.9137C13.3277 52.9632 12.6845 51.3813 12.958 49.7858L15.3502 35.8391C15.3975 35.5656 15.3064 35.2854 15.1071 35.0912L4.97412 25.2149C3.816 24.0838 3.40575 22.4259 3.90712 20.8879C4.40687 19.3481 5.71187 18.2474 7.31399 18.0145L21.3182 15.9802C21.5917 15.9397 21.8297 15.7674 21.953 15.5175L28.2147 2.82856C28.9325 1.37818 30.3826 0.476685 31.9999 0.476685C33.6189 0.476685 35.0692 1.37818 35.7851 2.82843L42.0486 15.5174C42.1718 15.7673 42.4082 15.9395 42.6833 15.98L56.6875 18.0144C58.288 18.2474 59.5948 19.3481 60.0944 20.8879ZM56.6689 22.7956C57.0083 22.4664 56.9323 22.0815 56.8833 21.9313C56.8343 21.781 56.6705 21.4248 56.2011 21.3573L42.1987 19.3213C40.8227 19.122 39.6342 18.2594 39.0197 17.0134L32.7581 4.32255C32.6534 4.11155 32.5032 3.9933 32.3597 3.92918C32.2162 3.86505 32.0794 3.85318 32.0001 3.85318C31.8431 3.85318 31.4531 3.8988 31.2437 4.32255L24.9802 17.0133C24.3657 18.2593 23.1771 19.1219 21.8028 19.3211L7.79862 21.3571C7.33099 21.4246 7.16724 21.7809 7.11824 21.9311C7.06924 22.0814 6.99162 22.4663 7.33099 22.7955L17.464 32.6736C18.4601 33.6444 18.9125 35.0406 18.6778 36.4097L16.2856 50.3565C16.2062 50.8225 16.495 51.0892 16.6216 51.1821C16.7499 51.275 17.0926 51.4675 17.5113 51.2462L30.0366 44.662C30.6511 44.3379 31.3264 44.1757 32.0001 44.1757C32.6753 44.1757 33.3489 44.3379 33.9652 44.662L46.4904 51.2462C46.9092 51.4673 47.2518 51.275 47.3784 51.1821C47.5067 51.0892 47.7954 50.8225 47.7144 50.3565L45.3222 36.4097C45.0875 35.0406 45.5417 33.6444 46.536 32.6736L56.6689 22.7956Z" fill="#EFBE44"/>
<path d="M56.8833 21.9311C56.9323 22.0814 57.0082 22.4662 56.669 22.7955L46.536 32.6736C45.5416 33.6443 45.0875 35.0406 45.3221 36.4097L47.7144 50.3564C47.7954 50.8224 47.5067 51.0892 47.3784 51.1821C47.2517 51.2749 46.909 51.4674 46.4904 51.2462L33.9651 44.6619C33.3489 44.3378 32.6753 44.1757 32 44.1757C31.3264 44.1757 30.6511 44.3378 30.0365 44.6619L17.5112 51.2463C17.0924 51.4674 16.7498 51.2751 16.6214 51.1822C16.4948 51.0893 16.206 50.8226 16.2854 50.3566L18.6777 36.4098C18.9123 35.0407 18.4599 33.6445 17.4638 32.6737L7.33081 22.7956C6.99144 22.4664 7.06919 22.0815 7.11806 21.9312C7.16706 21.781 7.33081 21.4247 7.79844 21.3572L21.8027 19.3212C23.1769 19.122 24.3654 18.2594 24.98 17.0134L31.2436 4.32252C31.453 3.89877 31.843 3.85315 32 3.85315C32.0794 3.85315 32.2161 3.86502 32.3596 3.92915C32.5031 3.99327 32.6534 4.11152 32.758 4.32252L39.0198 17.0133C39.6343 18.2592 40.8229 19.1219 42.1987 19.3211L56.2012 21.3571C56.6706 21.4247 56.8343 21.7809 56.8833 21.9311Z" fill="#E4A738"/>
<path d="M51.7227 2.82826C52.4773 3.37526 52.6444 4.43213 52.0974 5.18513L50.3044 7.65175C49.9752 8.10762 49.4603 8.349 48.9369 8.349C48.5942 8.349 48.2464 8.24437 47.9459 8.0265C47.1929 7.47775 47.0258 6.42263 47.5728 5.668L49.3658 3.20138C49.9129 2.44676 50.9698 2.27964 51.7227 2.82826Z" fill="#EFBE44"/>
<path d="M33.6885 58.786V61.835C33.6885 62.7686 32.9339 63.5233 32.0002 63.5233C31.0684 63.5233 30.312 62.7686 30.312 61.835V58.786C30.312 57.8542 31.0684 57.0978 32.0002 57.0978C32.9339 57.0978 33.6885 57.8542 33.6885 58.786Z" fill="#EFBE44"/>
<path d="M16.4207 5.65792C16.9677 6.41255 16.8005 7.4678 16.0475 8.01642C15.747 8.23417 15.3993 8.33892 15.0565 8.33892C14.5332 8.33892 14.0183 8.09754 13.6891 7.64329L11.8962 5.17668C11.3492 4.42205 11.5163 3.36518 12.2693 2.81818C13.0239 2.26943 14.0808 2.43668 14.6278 3.19131L16.4207 5.65792Z" fill="#EFBE44"/>
<path d="M6.19376 38.3529C6.48251 39.2409 5.99789 40.1931 5.10989 40.4818L2.21114 41.4238C2.03727 41.4795 1.86164 41.5065 1.68952 41.5065C0.977021 41.5065 0.315273 41.0524 0.0840231 40.3399C-0.204726 39.4519 0.281523 38.4996 1.1679 38.211L4.06664 37.269C4.95451 36.982 5.90676 37.4665 6.19376 38.3529Z" fill="#EFBE44"/>
</svg>
