<svg width="64" height="64" viewBox="0 0 64 64" fill="none" xmlns="http://www.w3.org/2000/svg">
<g clip-path="url(#clip0_45_74)">
<path d="M57.8954 6.10463C53.9592 2.16775 48.7188 0 43.1386 0C37.5591 0 32.318 2.16775 28.3819 6.10463C23.0577 11.4288 21.0462 19.0475 22.9824 26.2609L0.6115 48.8151C0.220125 49.2065 0 49.737 0 50.2907V61.913C0 63.0659 0.934125 64 2.087 64H13.7093C14.2629 64 14.7935 63.7799 15.1847 63.3885L18.1359 60.4374C18.5273 60.046 18.7751 59.5155 18.7751 58.9619V55.3713H22.5632C23.1169 55.3713 23.6475 55.1094 24.0387 54.718L26.9905 51.7663C27.3819 51.3749 27.6855 50.8444 27.6855 50.2907V46.4609H31.418C31.9716 46.4609 32.5023 46.2546 32.8935 45.8635L37.7393 41.0177C44.9552 42.9552 52.5721 40.9424 57.8955 35.6183C61.8329 31.6821 64 26.4409 64 20.8614C64 15.2813 61.8329 10.0408 57.8954 6.10463ZM51.8204 23.9939C50.1927 25.6209 48.0548 26.4347 45.9168 26.4347C43.7788 26.4347 41.6415 25.6209 40.0139 23.9945L40.0131 23.9937C36.759 20.7384 36.759 15.4428 40.0139 12.1886C41.5885 10.6133 43.6851 9.74638 45.9168 9.74638C48.1484 9.74638 50.2449 10.6131 51.8196 12.1886C55.0745 15.4429 55.0745 20.7385 51.8204 23.9939Z" fill="#EFBE44"/>
<path d="M57.8953 6.10461L51.8153 12.1846C51.8167 12.186 51.8181 12.1874 51.8198 12.1887C55.0746 15.4429 55.0746 20.7384 51.8205 23.9939C50.1926 25.6209 48.0548 26.4347 45.9168 26.4347C43.7788 26.4347 41.6415 25.6209 40.0139 23.9945L40.0131 23.9937C40.0119 23.9925 40.0108 23.9912 40.0096 23.99L0.611145 63.3887C0.98877 63.7665 1.51052 64 2.0869 64H13.7091C14.2629 64 14.7935 63.7799 15.1848 63.3886L18.1359 60.4375C18.5273 60.0461 18.7751 59.5156 18.775 58.9619V55.3712H22.5631C23.1168 55.3712 23.6474 55.1094 24.0386 54.718L26.9904 51.7662C27.3816 51.375 27.6853 50.8444 27.6853 50.2907V46.4609H31.4178C31.9715 46.4609 32.502 46.2545 32.8933 45.8632L37.739 41.0175C44.9551 42.955 52.572 40.9421 57.8953 35.618C61.8328 31.6821 63.9999 26.4407 63.9999 20.8615C63.9999 15.2812 61.8328 10.0407 57.8953 6.10461Z" fill="#E4A738"/>
</g>
<defs>
<clipPath id="clip0_45_74">
<rect width="64" height="64" fill="white"/>
</clipPath>
</defs>
</svg>
